<svg version="1.1" id="Layer_1" xmlns="http://www.w3.org/2000/svg" xmlns:xlink="http://www.w3.org/1999/xlink" x="0px" y="0px"
	 width="100%" viewBox="0 0 270 270" enable-background="new 0 0 270 270" xml:space="preserve">
<path fill="#000000" opacity="1.000000" stroke="none" 
	d="
M271.000000,95.000000 
	C271.000000,154.000000 271.000000,212.500000 271.000000,271.000000 
	C181.000000,271.000000 91.000000,271.000000 1.000000,271.000000 
	C1.000000,181.000000 1.000000,91.000000 1.000000,1.000000 
	C91.000000,1.000000 181.000000,1.000000 271.000000,1.000000 
	C271.000000,32.166668 271.000000,63.333332 271.000000,95.000000 
M19.015738,98.908348 
	C18.690014,99.657288 18.285118,100.382294 18.050365,101.158737 
	C14.088285,114.263412 13.760120,127.712738 13.935760,141.270111 
	C14.105114,154.342270 16.276474,166.964478 21.098740,179.093292 
	C25.458532,190.058899 30.331915,200.954834 38.153706,209.803558 
	C46.089222,218.780945 55.249516,226.675705 64.189896,235.687866 
	C65.732460,236.567001 67.334526,237.356827 68.808517,238.338867 
	C86.444809,250.088730 105.950188,256.607025 126.981239,257.893005 
	C145.046173,258.997620 162.840225,256.999664 179.818283,250.003159 
	C189.532455,246.000046 198.964630,241.543747 207.930237,234.982529 
	C224.493347,222.155884 237.972137,206.806946 246.762268,187.603683 
	C253.914856,171.977844 258.127472,155.669754 257.955444,138.405365 
	C257.893066,132.149231 257.802979,125.827553 256.878357,119.662849 
	C255.782242,112.354729 253.771545,105.183792 252.017914,97.206627 
	C244.452667,74.758400 231.618820,55.995678 213.381226,40.776566 
	C201.796112,31.108894 188.604935,24.232307 174.667587,19.299994 
	C162.295258,14.921531 149.119049,12.914322 134.871765,14.048528 
	C83.429855,11.744431 34.272469,49.076626 19.015738,98.908348 
z"/>
<path fill="#F05B29" opacity="1.000000" stroke="none" 
	d="
M252.157257,97.953400 
	C253.771545,105.183792 255.782242,112.354729 256.878357,119.662849 
	C257.802979,125.827553 257.893066,132.149231 257.955444,138.405365 
	C258.127472,155.669754 253.914856,171.977844 246.762268,187.603683 
	C237.972137,206.806946 224.493347,222.155884 207.424210,234.692413 
	C205.949783,233.256088 204.981400,232.109894 204.007111,230.648636 
	C203.990906,229.913284 203.980576,229.492981 204.300842,228.991837 
	C206.427765,227.629807 208.224091,226.348602 210.346832,224.974976 
	C212.784821,222.929886 214.896393,220.977234 217.290436,218.844391 
	C221.392059,214.114624 225.211227,209.565063 229.309036,204.829254 
	C231.169342,202.529541 232.905914,200.513672 234.308609,198.287430 
	C247.853012,176.790710 253.646881,153.328171 251.974945,127.562485 
	C251.005829,121.404213 250.033279,115.681198 249.038162,109.563766 
	C248.361313,106.170090 247.707031,103.170822 247.381088,100.042618 
	C249.192032,99.260262 250.674652,98.606834 252.157257,97.953400 
z"/>
<path fill="#0953BC" opacity="1.000000" stroke="none" 
	d="
M252.087585,97.580017 
	C250.674652,98.606834 249.192032,99.260262 247.152802,99.974731 
	C246.596191,100.035774 246.121078,100.047241 246.089111,99.650673 
	C244.685913,95.171448 243.314697,91.088791 241.802490,86.689362 
	C234.660980,72.041573 225.338089,59.521076 213.430710,48.813061 
	C200.456329,37.145554 185.748596,28.813225 168.651398,23.875240 
	C163.203262,22.509613 158.102631,21.295454 152.551758,20.059425 
	C149.401688,20.044527 146.701859,20.051495 143.601547,20.016537 
	C140.521271,19.658228 137.841507,19.341845 135.132553,18.671516 
	C135.322128,16.931807 135.540878,15.546039 135.759644,14.160273 
	C149.119049,12.914322 162.295258,14.921531 174.667587,19.299994 
	C188.604935,24.232307 201.796112,31.108894 213.381226,40.776566 
	C231.618820,55.995678 244.452667,74.758400 252.087585,97.580017 
z"/>
<path fill="#F8A802" opacity="1.000000" stroke="none" 
	d="
M204.013000,230.963684 
	C204.981400,232.109894 205.949783,233.256088 207.083755,234.682373 
	C198.964630,241.543747 189.532455,246.000046 179.818283,250.003159 
	C162.840225,256.999664 145.046173,258.997620 126.981239,257.893005 
	C105.950188,256.607025 86.444809,250.088730 68.808517,238.338867 
	C67.334526,237.356827 65.732460,236.567001 64.230682,235.101028 
	C65.206879,233.031876 66.142288,231.549561 67.280258,230.019836 
	C67.482826,229.972427 67.885086,229.868057 68.073830,230.160126 
	C69.652870,231.615448 70.932236,232.953705 72.449982,233.915909 
	C98.618446,250.506210 127.085045,255.353622 157.433899,250.384720 
	C174.487961,247.592499 189.551743,239.992249 204.013000,230.963684 
z"/>
<path fill="#028E42" opacity="1.000000" stroke="none" 
	d="
M135.315704,14.104400 
	C135.540878,15.546039 135.322128,16.931807 135.056534,18.668758 
	C135.009689,19.019945 134.863098,18.979431 134.416290,18.981464 
	C128.350525,19.482269 122.674850,19.633066 117.122063,20.537956 
	C87.605568,25.348003 63.499664,39.643017 44.765591,62.846058 
	C35.837273,73.904205 28.352934,85.864235 24.746593,100.009071 
	C24.338095,100.099075 24.174204,100.132812 23.722908,99.998047 
	C22.002817,99.268982 20.570131,98.708405 19.137447,98.147827 
	C34.272469,49.076626 83.429855,11.744431 135.315704,14.104400 
z"/>
<path fill="#D7101E" opacity="1.000000" stroke="none" 
	d="
M19.076591,98.528091 
	C20.570131,98.708405 22.002817,99.268982 23.683855,100.383797 
	C19.493206,118.163666 17.373884,135.540237 20.330797,153.283783 
	C25.639977,185.142563 41.201008,210.740143 67.077698,230.067261 
	C66.142288,231.549561 65.206879,233.031876 64.072433,234.779419 
	C55.249516,226.675705 46.089222,218.780945 38.153706,209.803558 
	C30.331915,200.954834 25.458532,190.058899 21.098740,179.093292 
	C16.276474,166.964478 14.105114,154.342270 13.935760,141.270111 
	C13.760120,127.712738 14.088285,114.263412 18.050365,101.158737 
	C18.285118,100.382294 18.690014,99.657288 19.076591,98.528091 
z"/>
<path fill="#FCC310" opacity="1.000000" stroke="none" 
	d="
M204.007111,230.648636 
	C189.551743,239.992249 174.487961,247.592499 157.433899,250.384720 
	C127.085045,255.353622 98.618446,250.506210 72.449982,233.915909 
	C70.932236,232.953705 69.652870,231.615448 68.179420,229.864212 
	C68.992889,228.147995 69.889511,227.019760 71.145805,226.067505 
	C74.558456,226.828934 77.609764,227.913376 80.664673,227.923584 
	C116.250259,228.042694 151.836487,228.038605 187.422272,227.952728 
	C192.048126,227.941574 196.672424,227.288132 201.507355,227.061920 
	C202.128983,227.470490 202.540695,227.749298 203.081360,228.238907 
	C203.411697,228.720688 203.665009,228.928345 203.970245,229.072678 
	C203.980576,229.492981 203.990906,229.913284 204.007111,230.648636 
z"/>
<path fill="#F57733" opacity="1.000000" stroke="none" 
	d="
M249.060730,109.958183 
	C250.033279,115.681198 251.005829,121.404213 251.653580,127.693924 
	C250.238571,130.418686 248.785492,132.470032 248.114487,134.751404 
	C241.741852,156.418045 235.476257,178.116425 229.276169,199.833176 
	C228.813980,201.452042 229.094910,203.283081 229.030380,205.015503 
	C225.211227,209.565063 221.392059,214.114624 217.319855,218.452545 
	C217.192276,217.589417 217.268799,216.923981 217.450165,216.288452 
	C226.107819,185.951462 234.720703,155.601486 243.491821,125.297295 
	C245.000824,120.083733 247.187241,115.066246 249.060730,109.958183 
z"/>
<path fill="#F67B34" opacity="1.000000" stroke="none" 
	d="
M249.038162,109.563766 
	C247.187241,115.066246 245.000824,120.083733 243.491821,125.297295 
	C234.720703,155.601486 226.107819,185.951462 217.450165,216.288452 
	C217.268799,216.923981 217.192276,217.589417 217.037399,218.632751 
	C214.896393,220.977234 212.784821,222.929886 210.352173,224.561432 
	C210.442780,222.122559 210.694733,219.958771 211.290268,217.894043 
	C219.537643,189.300461 227.915939,160.744324 236.070343,132.124374 
	C238.978806,121.916359 241.372726,111.561752 244.308350,101.164803 
	C245.117142,100.719444 245.619110,100.383347 246.121078,100.047241 
	C246.121078,100.047241 246.596191,100.035774 246.824478,100.103668 
	C247.707031,103.170822 248.361313,106.170090 249.038162,109.563766 
z"/>
<path fill="#F57E36" opacity="1.000000" stroke="none" 
	d="
M244.001526,101.274063 
	C241.372726,111.561752 238.978806,121.916359 236.070343,132.124374 
	C227.915939,160.744324 219.537643,189.300461 211.290268,217.894043 
	C210.694733,219.958771 210.442780,222.122559 210.025742,224.653839 
	C208.224091,226.348602 206.427765,227.629807 204.300842,228.991837 
	C203.665009,228.928345 203.411697,228.720688 203.328400,227.970459 
	C204.180862,225.477661 205.040314,223.500031 205.630890,221.445114 
	C214.411667,190.892288 223.258423,160.357712 231.846344,129.750580 
	C234.306244,120.983536 235.992950,111.999535 238.140869,102.894806 
	C238.247543,102.674591 238.402863,102.210518 238.744934,102.290756 
	C240.391541,101.924133 241.696075,101.477264 243.252106,101.086044 
	C243.669617,101.185814 243.835587,101.229942 244.001526,101.274063 
z"/>
<path fill="#F47331" opacity="1.000000" stroke="none" 
	d="
M229.309021,204.829254 
	C229.094910,203.283081 228.813980,201.452042 229.276169,199.833176 
	C235.476257,178.116425 241.741852,156.418045 248.114487,134.751404 
	C248.785492,132.470032 250.238571,130.418686 251.650146,128.129181 
	C253.646881,153.328171 247.853012,176.790710 234.308609,198.287430 
	C232.905914,200.513672 231.169342,202.529541 229.309021,204.829254 
z"/>
<path fill="#0E63D7" opacity="1.000000" stroke="none" 
	d="
M244.308350,101.164803 
	C243.835587,101.229942 243.669617,101.185814 243.170578,100.752029 
	C241.742416,98.925751 240.837708,97.277702 239.518600,96.089851 
	C234.347061,91.432861 229.060120,86.903229 223.788330,82.358452 
	C202.180984,63.730873 180.545105,45.136303 158.977646,26.462713 
	C156.786575,24.565636 154.984558,22.219204 153.001999,20.081295 
	C158.102631,21.295454 163.203262,22.509613 168.736389,24.204464 
	C173.159775,28.593401 176.962509,32.718658 181.175156,36.371140 
	C196.800583,49.918850 212.510742,63.370361 228.303711,76.722404 
	C232.645203,80.392899 237.385941,83.591171 241.943481,87.006134 
	C243.314697,91.088791 244.685913,95.171448 246.089111,99.650681 
	C245.619110,100.383347 245.117142,100.719444 244.308350,101.164803 
z"/>
<path fill="#0D5FD5" opacity="1.000000" stroke="none" 
	d="
M241.802490,86.689362 
	C237.385941,83.591171 232.645203,80.392899 228.303711,76.722404 
	C212.510742,63.370361 196.800583,49.918850 181.175156,36.371140 
	C176.962509,32.718658 173.159775,28.593401 169.083893,24.355934 
	C185.748596,28.813225 200.456329,37.145554 213.430710,48.813061 
	C225.338089,59.521076 234.660980,72.041573 241.802490,86.689362 
z"/>
<path fill="#1068DA" opacity="1.000000" stroke="none" 
	d="
M238.402863,102.210510 
	C238.402863,102.210518 238.247543,102.674591 237.795731,102.924255 
	C235.895950,103.800087 234.447983,104.426247 232.670746,104.981949 
	C231.893738,104.911690 231.445984,104.911888 230.905396,104.591019 
	C226.830841,100.578331 222.948166,96.772705 218.851227,93.213722 
	C193.534622,71.221268 168.197388,49.252224 142.771805,27.386097 
	C140.591751,25.511244 137.718689,24.442225 135.110992,22.598797 
	C134.990646,21.125631 134.926880,20.052530 134.863098,18.979431 
	C134.863098,18.979431 135.009689,19.019945 135.085709,19.022703 
	C137.841507,19.341845 140.521271,19.658228 143.691864,20.336914 
	C154.446487,29.793747 164.655350,38.951271 174.989380,47.965313 
	C185.598724,57.219513 196.312820,66.354057 207.013550,75.502960 
	C217.455322,84.430450 227.938095,93.309952 238.402863,102.210510 
z"/>
<path fill="#1065D8" opacity="1.000000" stroke="none" 
	d="
M238.744934,102.290756 
	C227.938095,93.309952 217.455322,84.430450 207.013550,75.502960 
	C196.312820,66.354057 185.598724,57.219513 174.989380,47.965313 
	C164.655350,38.951271 154.446487,29.793747 144.092361,20.378841 
	C146.701859,20.051495 149.401688,20.044527 152.551758,20.059427 
	C154.984558,22.219204 156.786575,24.565636 158.977646,26.462713 
	C180.545105,45.136303 202.180984,63.730873 223.788330,82.358452 
	C229.060120,86.903229 234.347061,91.432861 239.518600,96.089851 
	C240.837708,97.277702 241.742416,98.925751 242.919067,100.696381 
	C241.696075,101.477264 240.391541,101.924133 238.744934,102.290756 
z"/>
<path fill="#DC2327" opacity="1.000000" stroke="none" 
	d="
M70.786133,225.891541 
	C69.889511,227.019760 68.992889,228.147995 67.990677,229.572144 
	C67.885086,229.868057 67.482826,229.972427 67.280266,230.019836 
	C41.201008,210.740143 25.639977,185.142563 20.330797,153.283783 
	C17.373884,135.540237 19.493206,118.163666 23.971260,100.552292 
	C24.174204,100.132812 24.338095,100.099075 25.037678,100.204445 
	C26.694281,100.620255 27.815193,100.896957 29.070847,101.374680 
	C29.489834,101.730896 29.753689,101.915276 30.000990,102.532928 
	C30.740370,105.986160 31.209681,109.130150 32.256535,112.068367 
	C37.378910,126.445412 42.628334,140.777481 47.884392,155.106522 
	C53.480831,170.363510 59.221405,185.568207 64.726562,200.857864 
	C67.364777,208.185043 69.605118,215.655502 71.943962,223.361252 
	C71.503555,224.404800 71.144844,225.148178 70.786133,225.891541 
z"/>
<path fill="#00A04F" opacity="1.000000" stroke="none" 
	d="
M28.936108,101.173660 
	C27.815193,100.896957 26.694281,100.620255 25.282284,100.148178 
	C28.352934,85.864235 35.837273,73.904205 44.765591,62.846058 
	C63.499664,39.643017 87.605568,25.348003 117.122063,20.537956 
	C122.674850,19.633066 128.350525,19.482269 134.416290,18.981464 
	C134.926880,20.052530 134.990646,21.125631 135.054413,23.024754 
	C134.982269,25.566771 134.910126,27.282761 134.513046,29.091114 
	C133.881546,29.313057 133.544403,29.396935 133.272751,29.578684 
	C99.490837,52.179283 65.704811,74.773781 31.971079,97.446083 
	C30.698959,98.301071 29.936216,99.913956 28.936108,101.173660 
z"/>
<path fill="#FEC709" opacity="1.000000" stroke="none" 
	d="
M71.145805,226.067505 
	C71.144844,225.148178 71.503555,224.404800 72.230881,223.184570 
	C77.743454,215.810867 82.887398,208.914062 88.443390,202.051056 
	C93.309189,202.567627 97.909622,204.808868 102.359329,201.067108 
	C108.761765,203.243134 114.756989,205.516815 120.888496,207.329559 
	C122.734467,207.875320 124.959335,207.139465 127.328232,206.868835 
	C128.433014,205.160751 129.220200,203.574539 130.381958,201.956512 
	C132.160538,199.836792 134.616180,197.817841 134.758499,195.647186 
	C135.096970,190.484940 134.340988,185.250946 133.964905,179.698669 
	C133.242966,177.846756 132.583313,176.342102 131.976410,174.381805 
	C132.009644,171.939911 132.002487,169.953430 131.968567,167.967407 
	C131.755432,155.484177 134.345016,143.707718 141.110733,133.145782 
	C141.951828,135.387695 142.903137,137.380005 142.928375,139.383987 
	C143.073914,150.936127 142.934662,162.491699 143.054596,174.044418 
	C143.079712,176.463623 143.786438,178.875748 144.156738,181.624924 
	C144.079285,182.637100 144.024155,183.315491 143.736359,184.232880 
	C142.667786,186.314407 141.831879,188.156937 140.740967,190.285980 
	C140.044907,195.959412 139.494843,201.342407 139.299561,206.738235 
	C139.274918,207.419174 141.114532,208.167587 142.375854,208.834656 
	C143.374146,208.514313 144.086990,208.244080 145.233429,207.978027 
	C147.287796,207.777054 148.964340,207.769943 150.519501,207.331833 
	C156.653992,205.603683 162.750351,203.740204 169.276917,202.027328 
	C174.202286,202.036835 178.711594,201.945938 183.476334,202.061127 
	C185.508987,204.479980 187.286224,206.692764 189.204681,209.203888 
	C190.806702,211.366684 192.267517,213.231110 193.846664,215.418854 
	C195.561539,217.881897 197.158081,220.021606 198.872818,222.477264 
	C199.759811,224.172882 200.528641,225.552536 201.297455,226.932190 
	C196.672424,227.288132 192.048126,227.941574 187.422272,227.952728 
	C151.836487,228.038605 116.250259,228.042694 80.664673,227.923584 
	C77.609764,227.913376 74.558456,226.828934 71.145805,226.067505 
z"/>
<path fill="#F78136" opacity="1.000000" stroke="none" 
	d="
M201.507355,227.061920 
	C200.528641,225.552536 199.759811,224.172882 199.144653,222.205383 
	C199.936996,220.108841 200.734970,218.646591 201.190628,217.084503 
	C208.954514,190.469574 216.739990,163.860596 224.375290,137.208649 
	C227.431152,126.541733 230.135590,115.774155 233.000000,105.052406 
	C234.447983,104.426247 235.895950,103.800087 237.689056,103.144470 
	C235.992950,111.999535 234.306244,120.983536 231.846344,129.750580 
	C223.258423,160.357712 214.411667,190.892288 205.630890,221.445114 
	C205.040314,223.500031 204.180862,225.477661 203.199463,227.759674 
	C202.540695,227.749298 202.128983,227.470490 201.507355,227.061920 
z"/>
<path fill="#126ADA" opacity="1.000000" stroke="none" 
	d="
M134.837982,28.998753 
	C134.910126,27.282761 134.982269,25.566771 135.110992,23.424820 
	C137.718689,24.442225 140.591751,25.511244 142.771805,27.386097 
	C168.197388,49.252224 193.534622,71.221268 218.851227,93.213722 
	C222.948166,96.772705 226.830841,100.578331 230.625366,104.790436 
	C228.959061,105.901993 227.479919,106.493065 225.668167,107.040619 
	C224.888382,106.991165 224.441193,106.985237 223.910645,106.648239 
	C223.185364,105.366005 222.714050,104.217056 221.875504,103.493874 
	C212.087845,95.052467 202.217224,86.707275 192.423172,78.273193 
	C178.486847,66.272011 164.687515,54.109596 150.635666,42.245850 
	C145.777573,38.144249 140.340057,34.728943 135.104462,30.667757 
	C134.973816,29.889822 134.905899,29.444288 134.837982,28.998753 
z"/>
<path fill="#F78438" opacity="1.000000" stroke="none" 
	d="
M226.000763,107.084137 
	C227.479919,106.493065 228.959061,105.901993 230.718216,105.111496 
	C231.445984,104.911888 231.893738,104.911690 232.670746,104.981949 
	C230.135590,115.774155 227.431152,126.541733 224.375290,137.208649 
	C216.739990,163.860596 208.954514,190.469574 201.190628,217.084503 
	C200.734970,218.646591 199.936996,220.108841 199.026474,221.889435 
	C197.158081,220.021606 195.561539,217.881897 194.194244,215.275330 
	C195.413956,212.956940 196.771561,211.211121 197.339722,209.237991 
	C205.659363,180.345245 213.896210,151.428558 222.092010,122.500366 
	C223.536545,117.401749 224.704865,112.224869 226.000763,107.084137 
z"/>
<path fill="#E12926" opacity="1.000000" stroke="none" 
	d="
M88.031342,202.017242 
	C82.887398,208.914062 77.743454,215.810867 72.312576,222.884369 
	C69.605118,215.655502 67.364777,208.185043 64.726562,200.857864 
	C59.221405,185.568207 53.480831,170.363510 47.884392,155.106522 
	C42.628334,140.777481 37.378910,126.445412 32.256535,112.068367 
	C31.209681,109.130150 30.740370,105.986160 30.326633,102.516525 
	C31.462959,102.389938 32.277485,102.683853 33.216377,103.296707 
	C34.247433,103.709053 35.154110,103.802467 36.143440,104.196228 
	C36.796761,104.425163 37.367428,104.353767 38.280396,104.454727 
	C39.119698,104.737259 39.616703,104.847435 40.357544,105.182007 
	C42.067921,105.882217 43.534462,106.358025 45.361248,106.910477 
	C46.450737,107.086037 47.179974,107.184959 48.166264,107.502701 
	C49.944759,108.119995 51.466202,108.518478 53.300510,109.108307 
	C55.012211,109.728920 56.411045,110.158195 58.107586,110.753113 
	C60.633583,111.708076 62.861874,112.497406 65.076134,113.692276 
	C64.055862,121.477829 62.081570,128.878357 62.237675,136.233704 
	C62.603157,153.454590 68.114037,169.241745 79.326103,182.485291 
	C83.171997,187.028000 88.540901,190.281311 93.190826,194.357971 
	C93.167648,194.592270 93.133659,195.061935 92.858582,195.249313 
	C91.066124,197.630203 89.548737,199.823730 88.031342,202.017242 
z"/>
<path fill="#07A654" opacity="1.000000" stroke="none" 
	d="
M33.092007,102.977768 
	C32.277485,102.683853 31.462959,102.389938 30.322792,102.112434 
	C29.753689,101.915276 29.489834,101.730896 29.070847,101.374680 
	C29.936216,99.913956 30.698959,98.301071 31.971079,97.446083 
	C65.704811,74.773781 99.490837,52.179283 133.272751,29.578684 
	C133.544403,29.396935 133.881546,29.313057 134.513031,29.091116 
	C134.905899,29.444288 134.973816,29.889822 135.045181,31.040161 
	C134.976013,32.495068 134.903397,33.245171 134.480072,34.029839 
	C132.931686,34.595764 131.627853,34.967331 130.552063,35.682121 
	C109.706123,49.533085 88.873405,63.404148 68.094803,77.355721 
	C66.821251,78.210823 66.018829,79.767609 64.747971,80.998428 
	C64.498749,80.998947 64.000305,81.000565 63.719200,81.102768 
	C62.957863,81.802696 62.477638,82.400421 61.748150,82.998665 
	C61.498886,82.999176 61.000362,83.000717 60.719257,83.102898 
	C59.957996,83.802841 59.477837,84.400597 58.748375,84.998878 
	C58.499073,84.999397 58.000469,85.000893 57.719353,85.103043 
	C56.958076,85.802940 56.477921,86.400688 55.748447,86.998978 
	C55.499130,86.999512 55.000492,87.001015 54.719376,87.103142 
	C53.958118,87.803009 53.477982,88.400742 52.748497,88.998993 
	C52.499153,88.999512 52.000473,89.000984 51.719353,89.103104 
	C50.958103,89.802986 50.477974,90.400734 49.748512,90.999023 
	C49.499184,90.999565 49.000519,91.001060 48.719398,91.103180 
	C47.958149,91.803040 47.478016,92.400780 46.748566,92.999084 
	C46.499245,92.999649 46.000603,93.001160 45.662697,93.084976 
	C41.287113,96.066078 35.632092,97.052750 33.758991,102.820297 
	C33.536030,102.870064 33.092007,102.977768 33.092007,102.977768 
z"/>
<path fill="#FEFEFC" opacity="1.000000" stroke="none" 
	d="
M140.793213,132.901566 
	C134.345016,143.707718 131.755432,155.484177 131.968567,167.967407 
	C132.002487,169.953430 132.009644,171.939911 131.675354,174.220947 
	C130.554123,172.343445 129.786697,170.171158 129.043060,167.576462 
	C128.644211,163.771576 128.221558,160.389099 127.868286,156.673798 
	C127.892998,155.892212 127.848328,155.443451 127.885872,154.580933 
	C129.214462,148.764343 130.460846,143.361496 131.900742,137.647202 
	C135.530792,131.901123 138.967316,126.466492 142.692139,120.817696 
	C144.905243,118.350609 146.983795,116.210037 148.726761,113.824287 
	C154.639923,105.730476 152.243927,95.711113 143.052856,90.565430 
	C138.436462,90.394028 134.106339,90.495094 129.435883,90.689056 
	C122.375290,95.107628 119.605133,101.082443 121.125648,107.971786 
	C122.604355,114.671761 127.557518,118.782303 135.652863,120.411041 
	C133.396149,123.205574 131.232178,125.693626 128.782303,128.315491 
	C127.233131,130.079010 125.969856,131.708740 124.438324,133.555847 
	C123.364433,135.147400 122.558784,136.521591 121.494446,138.116577 
	C120.166550,140.893997 119.097343,143.450623 117.802521,146.308075 
	C114.603394,157.032120 113.414703,167.482620 117.026779,178.396942 
	C117.428833,180.526428 117.900986,182.266556 118.223633,184.368439 
	C120.073006,190.550201 122.071892,196.370209 123.657623,202.181732 
	C113.173424,200.751129 104.440926,196.092606 95.774597,190.599442 
	C84.986465,182.377884 77.221443,172.243774 72.442497,159.870560 
	C66.734871,145.092896 66.895523,130.095047 71.165428,114.692017 
	C82.713135,84.893295 104.306068,69.556412 136.201569,67.921555 
	C141.092239,68.511963 145.630569,68.591469 149.953171,69.597710 
	C175.086731,75.448509 191.563370,91.055817 200.491211,115.469284 
	C203.563782,126.239891 204.229691,136.743500 202.416183,147.363907 
	C199.337570,165.393173 189.803940,179.484253 175.382828,190.853378 
	C166.822662,196.610535 157.865189,200.546402 147.744415,202.106201 
	C148.391327,198.263596 149.304504,194.668579 150.443726,190.799683 
	C151.484436,187.704468 152.299088,184.883148 153.327499,181.765640 
	C154.419128,177.666183 155.297012,173.862915 156.358337,169.719879 
	C158.362625,160.199326 159.426071,151.023834 156.277771,141.512390 
	C154.495300,136.074753 152.171158,131.460541 146.785767,128.661102 
	C141.603867,126.101997 142.659729,131.354904 140.793213,132.901566 
z"/>
<path fill="#F7893A" opacity="1.000000" stroke="none" 
	d="
M225.668152,107.040619 
	C224.704865,112.224869 223.536545,117.401749 222.092010,122.500366 
	C213.896210,151.428558 205.659363,180.345245 197.339722,209.237991 
	C196.771561,211.211121 195.413956,212.956940 194.075912,214.951996 
	C192.267517,213.231110 190.806702,211.366684 189.354919,208.887604 
	C192.021973,199.733948 194.788849,191.226028 197.246155,182.629608 
	C197.736832,180.913025 197.045563,178.858582 197.005310,176.624817 
	C209.030914,156.590530 212.367157,135.725891 205.678818,113.362541 
	C205.719757,113.230560 205.783554,112.961662 206.175812,112.961655 
	C212.376724,110.967529 218.185364,108.973419 223.994003,106.979309 
	C224.441193,106.985237 224.888382,106.991165 225.668152,107.040619 
z"/>
<path fill="#FDBD10" opacity="1.000000" stroke="none" 
	d="
M141.110733,133.145782 
	C142.659729,131.354904 141.603867,126.101997 146.845123,129.023849 
	C152.856476,140.608337 152.902115,152.184525 150.749115,164.285675 
	C149.697861,167.725403 148.843292,170.859253 147.777130,174.258118 
	C146.436722,176.779129 145.307892,179.035141 144.179062,181.291138 
	C143.786438,178.875748 143.079712,176.463623 143.054596,174.044418 
	C142.934662,162.491699 143.073914,150.936127 142.928375,139.383987 
	C142.903137,137.380005 141.951828,135.387695 141.110733,133.145782 
z"/>
<path fill="#F98D3A" opacity="1.000000" stroke="none" 
	d="
M196.899292,176.959930 
	C197.045563,178.858582 197.736832,180.913025 197.246155,182.629608 
	C194.788849,191.226028 192.021973,199.733948 189.213684,208.589264 
	C187.286224,206.692764 185.508987,204.479980 183.349503,201.749054 
	C181.640488,199.155960 180.313721,197.081009 179.224686,194.773727 
	C185.274719,188.680908 191.087006,182.820419 196.899292,176.959930 
z"/>
<path fill="#F8A805" opacity="1.000000" stroke="none" 
	d="
M148.010681,202.353806 
	C157.865189,200.546402 166.822662,196.610535 175.568085,191.140076 
	C176.740601,192.494492 177.400681,193.664474 177.831696,195.089111 
	C174.688721,197.538162 171.774796,199.732544 168.860870,201.926926 
	C162.750351,203.740204 156.653992,205.603683 150.519501,207.331833 
	C148.964340,207.769943 147.287796,207.777054 145.296204,207.623978 
	C145.296143,205.890182 145.666901,204.514618 146.307068,203.090912 
	C147.054550,202.813126 147.532623,202.583466 148.010681,202.353806 
z"/>
<path fill="#F8A805" opacity="1.000000" stroke="none" 
	d="
M95.937759,190.879578 
	C104.440926,196.092606 113.173424,200.751129 123.788071,202.467957 
	C125.224663,204.171997 126.117645,205.581345 127.010635,206.990707 
	C124.959335,207.139465 122.734467,207.875320 120.888496,207.329559 
	C114.756989,205.516815 108.761765,203.243134 102.114670,200.839996 
	C98.721268,198.709839 95.927467,196.885880 93.133659,195.061935 
	C93.133659,195.061935 93.167648,194.592270 93.435104,194.176453 
	C94.447624,192.800278 95.192688,191.839920 95.937759,190.879578 
z"/>
<path fill="#FFD423" opacity="1.000000" stroke="none" 
	d="
M129.019272,167.998871 
	C129.786697,170.171158 130.554123,172.343445 131.622589,174.676575 
	C132.583313,176.342102 133.242966,177.846756 133.578690,179.760010 
	C132.502319,182.257294 131.495667,184.293564 131.051743,186.445877 
	C130.195435,190.597641 129.656998,194.814941 128.762634,198.778244 
	C127.393829,197.018173 126.249168,195.484940 125.409348,193.797501 
	C126.139809,192.095001 126.565422,190.546692 126.992020,188.530457 
	C126.663284,181.375610 126.333572,174.688675 126.380737,168.001221 
	C127.511513,168.000092 128.265396,167.999481 129.019272,167.998871 
z"/>
<path fill="#FED750" opacity="1.000000" stroke="none" 
	d="
M147.744415,202.106201 
	C147.532623,202.583466 147.054550,202.813126 146.148468,202.692810 
	C145.482910,199.918121 145.239822,197.493881 145.009079,195.068497 
	C144.657898,191.377396 144.315277,187.685455 143.969025,183.993881 
	C144.024155,183.315491 144.079285,182.637100 144.156738,181.624924 
	C145.307892,179.035141 146.436722,176.779129 147.987122,174.613892 
	C148.604919,176.645554 148.784042,178.588348 149.001022,180.526917 
	C149.394684,184.043793 149.810898,187.558151 150.217682,191.073563 
	C149.304504,194.668579 148.391327,198.263596 147.744415,202.106201 
z"/>
<path fill="#FCBB14" opacity="1.000000" stroke="none" 
	d="
M125.104500,193.951706 
	C126.249168,195.484940 127.393829,197.018173 128.893646,199.066711 
	C129.501648,200.384125 129.754517,201.186218 130.007385,201.988312 
	C129.220200,203.574539 128.433014,205.160751 127.328232,206.868835 
	C126.117645,205.581345 125.224663,204.171997 124.201233,202.476410 
	C122.071892,196.370209 120.073006,190.550201 118.495270,184.495148 
	C119.940613,185.515808 120.964813,186.771561 122.054626,188.331116 
	C122.725639,189.442642 123.331032,190.250351 124.009857,191.362427 
	C124.423691,192.428436 124.764099,193.190063 125.104500,193.951706 
z"/>
<path fill="#FFCF13" opacity="1.000000" stroke="none" 
	d="
M130.381958,201.956512 
	C129.754517,201.186218 129.501648,200.384125 129.117783,199.293549 
	C129.656998,194.814941 130.195435,190.597641 131.051743,186.445877 
	C131.495667,184.293564 132.502319,182.257294 133.640961,180.107269 
	C134.340988,185.250946 135.096970,190.484940 134.758499,195.647186 
	C134.616180,197.817841 132.160538,199.836792 130.381958,201.956512 
z"/>
<path fill="#FFD235" opacity="1.000000" stroke="none" 
	d="
M143.736359,184.232880 
	C144.315277,187.685455 144.657898,191.377396 145.009079,195.068497 
	C145.239822,197.493881 145.482910,199.918121 145.879059,202.740967 
	C145.666901,204.514618 145.296143,205.890182 144.862610,207.619781 
	C144.086990,208.244080 143.374146,208.514313 142.352585,208.379272 
	C141.694565,201.982483 141.345276,195.990982 140.995972,189.999466 
	C141.831879,188.156937 142.667786,186.314407 143.736359,184.232880 
z"/>
<path fill="#FEC915" opacity="1.000000" stroke="none" 
	d="
M169.276917,202.027328 
	C171.774796,199.732544 174.688721,197.538162 178.062744,195.133636 
	C178.522827,194.923508 178.986954,195.006058 178.986954,195.006058 
	C180.313721,197.081009 181.640488,199.155960 183.094086,201.542984 
	C178.711594,201.945938 174.202286,202.036835 169.276917,202.027328 
z"/>
<path fill="#FEC915" opacity="1.000000" stroke="none" 
	d="
M92.858582,195.249313 
	C95.927467,196.885880 98.721268,198.709839 101.759720,200.760895 
	C97.909622,204.808868 93.309189,202.567627 88.443390,202.051056 
	C89.548737,199.823730 91.066124,197.630203 92.858582,195.249313 
z"/>
<path fill="#FFCF1F" opacity="1.000000" stroke="none" 
	d="
M140.740967,190.285980 
	C141.345276,195.990982 141.694565,201.982483 142.067123,208.429382 
	C141.114532,208.167587 139.274918,207.419174 139.299561,206.738235 
	C139.494843,201.342407 140.044907,195.959412 140.740967,190.285980 
z"/>
<path fill="#136DDB" opacity="1.000000" stroke="none" 
	d="
M223.910645,106.648239 
	C218.185364,108.973419 212.376724,110.967529 205.998932,112.671249 
	C197.867813,91.741524 183.988495,76.994759 163.962952,67.600479 
	C163.138718,65.835770 162.628799,64.116684 161.497559,63.067513 
	C156.043091,58.008762 150.545532,52.979683 144.807144,48.250847 
	C141.870239,45.830624 138.396057,44.062386 135.081726,41.750031 
	C134.943085,41.334412 134.887421,41.168236 134.887009,40.628975 
	C134.905624,39.504715 134.868958,38.753536 134.878769,37.670181 
	C134.894089,36.893032 134.862930,36.448063 134.879456,35.669556 
	C134.895035,34.889103 134.862915,34.442188 134.830780,33.995274 
	C134.903397,33.245171 134.976013,32.495068 135.107910,31.372562 
	C140.340057,34.728943 145.777573,38.144249 150.635666,42.245850 
	C164.687515,54.109596 178.486847,66.272011 192.423172,78.273193 
	C202.217224,86.707275 212.087845,95.052467 221.875504,103.493874 
	C222.714050,104.217056 223.185364,105.366005 223.910645,106.648239 
z"/>
<path fill="#D81523" opacity="1.000000" stroke="none" 
	d="
M95.774597,190.599442 
	C95.192688,191.839920 94.447624,192.800278 93.458282,193.942154 
	C88.540901,190.281311 83.171997,187.028000 79.326103,182.485291 
	C68.114037,169.241745 62.603157,153.454590 62.237675,136.233704 
	C62.081570,128.878357 64.055862,121.477829 65.332741,113.645035 
	C65.772812,113.150131 65.942245,113.108032 66.361519,113.275925 
	C68.060814,113.984352 69.510284,114.482773 70.959747,114.981194 
	C66.895523,130.095047 66.734871,145.092896 72.442497,159.870560 
	C77.221443,172.243774 84.986465,182.377884 95.774597,190.599442 
z"/>
<path fill="#22AD63" opacity="1.000000" stroke="none" 
	d="
M47.909206,107.283882 
	C47.179974,107.184959 46.450737,107.086037 45.433815,106.588287 
	C45.430958,105.126770 45.715786,104.064087 46.250160,103.000618 
	C46.499714,102.999832 46.998833,102.998703 47.279915,102.896561 
	C48.040756,102.196648 48.520519,101.598885 49.249863,101.000420 
	C49.499443,100.999718 49.998596,100.998543 50.279720,100.896454 
	C51.040642,100.196594 51.520443,99.598831 52.249832,99.000366 
	C52.499420,98.999664 52.998600,98.998512 53.279716,98.896439 
	C54.040649,98.196625 54.520462,97.598900 55.249863,97.000458 
	C55.499451,96.999733 55.998631,96.998512 56.279747,96.896423 
	C57.040665,96.196609 57.520466,95.598877 58.249825,95.000397 
	C58.499382,94.999649 58.998501,94.998413 59.279648,94.896347 
	C60.040581,94.196442 60.520363,93.598618 61.249722,93.000122 
	C61.499294,92.999451 61.998440,92.998405 62.279594,92.896347 
	C63.040546,92.196457 63.520344,91.598625 64.249725,91.000137 
	C64.499313,90.999481 64.998497,90.998428 65.279648,90.896362 
	C66.040588,90.196503 66.520386,89.598709 67.249756,89.000229 
	C67.499336,88.999535 67.998497,88.998413 68.279633,88.896347 
	C69.040565,88.196487 69.520363,87.598701 70.337692,86.916168 
	C73.028580,85.359642 75.423164,83.949295 77.726868,82.403534 
	C82.841858,78.971428 87.911308,75.471458 93.339836,71.926369 
	C95.120461,70.569702 96.560570,69.285812 98.331497,67.918976 
	C100.774628,66.557022 102.886932,65.278023 105.280258,63.896835 
	C106.041046,63.197037 106.520821,62.599422 107.250259,62.001099 
	C107.499924,62.000381 107.999268,61.999077 108.280281,61.896873 
	C109.041061,61.197060 109.520828,60.599442 110.250259,60.001114 
	C110.499931,60.000401 110.999268,59.999084 111.280289,59.896873 
	C112.041039,59.196957 112.520767,58.599255 113.250168,58.000885 
	C113.499855,58.000217 113.999222,57.999054 114.280251,57.896854 
	C115.041023,57.196964 115.520775,56.599274 116.250191,56.000904 
	C116.499863,56.000225 116.999207,55.999023 117.280243,55.896824 
	C118.041000,55.196915 118.520729,54.599209 119.250076,54.000778 
	C119.499695,54.000053 119.998947,53.998817 120.280014,53.896667 
	C121.040863,53.196823 121.520653,52.599129 122.250069,52.000725 
	C122.499695,52.000011 122.998940,51.998814 123.280014,51.896667 
	C124.040855,51.196831 124.520630,50.599140 125.250061,50.000732 
	C125.499710,50.000019 125.999031,49.998817 126.280075,49.896667 
	C127.040886,49.196850 127.520645,48.599174 128.250061,48.000786 
	C128.499725,48.000069 128.999069,47.998852 129.280106,47.896706 
	C130.040909,47.196918 130.520676,46.599281 131.250153,46.000904 
	C131.499847,46.000164 131.999252,45.998840 132.388184,45.997124 
	C133.554962,45.983627 134.332825,45.971848 135.333618,46.138954 
	C135.553925,46.873199 135.551315,47.428562 135.212692,48.024944 
	C126.323235,53.485405 117.737007,58.854496 109.250633,64.377045 
	C107.934807,65.233330 107.075951,66.791832 105.769089,68.270233 
	C98.363335,73.344482 91.194275,78.174095 83.654572,83.031235 
	C82.037567,83.483032 80.627571,83.662643 79.570343,84.369720 
	C69.769318,90.924553 60.008427,97.540321 50.301914,104.234154 
	C49.286293,104.934547 48.696541,106.252472 47.909206,107.283882 
z"/>
<path fill="#16AA5C" opacity="1.000000" stroke="none" 
	d="
M134.832306,38.002365 
	C134.868958,38.753536 134.905624,39.504715 134.562637,40.720894 
	C107.360703,59.035828 80.505440,76.836609 53.748531,94.784012 
	C49.283512,97.778961 45.246006,101.411263 40.786064,104.798706 
	C40.561176,104.848373 40.113708,104.957603 40.113708,104.957603 
	C39.616703,104.847435 39.119698,104.737259 38.240562,104.358170 
	C37.858433,104.089264 37.773647,103.897987 37.919655,103.589363 
	C39.393589,102.060844 40.589584,100.644730 42.068928,99.650024 
	C71.372757,79.946274 100.705376,60.285305 130.050964,40.643787 
	C131.558640,39.634670 133.234665,38.877068 134.832306,38.002365 
z"/>
<path fill="#29AF67" opacity="1.000000" stroke="none" 
	d="
M48.166260,107.502701 
	C48.696541,106.252472 49.286293,104.934547 50.301914,104.234154 
	C60.008427,97.540321 69.769318,90.924553 79.570343,84.369720 
	C80.627571,83.662643 82.037567,83.483032 83.473022,83.311890 
	C80.786308,87.069489 77.910507,90.573936 74.777115,93.918121 
	C73.727936,93.835175 72.763504,93.646454 72.171532,94.031036 
	C66.344139,97.816772 60.532398,101.631752 54.841808,105.617752 
	C53.910412,106.270149 53.590282,107.795227 52.987640,108.916969 
	C51.466202,108.518478 49.944759,108.119995 48.166260,107.502701 
z"/>
<path fill="#33B16C" opacity="1.000000" stroke="none" 
	d="
M53.300507,109.108307 
	C53.590282,107.795227 53.910412,106.270149 54.841808,105.617752 
	C60.532398,101.631752 66.344139,97.816772 72.171532,94.031036 
	C72.763504,93.646454 73.727936,93.835175 74.610832,94.211937 
	C72.842804,97.842003 70.983459,101.017998 68.867844,104.018120 
	C65.010994,106.090660 61.410439,108.339066 57.809879,110.587471 
	C56.411045,110.158195 55.012211,109.728920 53.300507,109.108307 
z"/>
<path fill="#42B171" opacity="1.000000" stroke="none" 
	d="
M58.107586,110.753113 
	C61.410439,108.339066 65.010994,106.090660 68.773972,104.358002 
	C67.994812,107.604477 67.053246,110.335205 66.111687,113.065926 
	C65.942245,113.108032 65.772812,113.150131 65.346771,113.239479 
	C62.861874,112.497406 60.633583,111.708076 58.107586,110.753113 
z"/>
<path fill="#20AC61" opacity="1.000000" stroke="none" 
	d="
M40.357544,105.182007 
	C40.113708,104.957603 40.561176,104.848373 41.115540,104.779037 
	C43.113472,104.140274 44.557041,103.570847 46.000610,103.001404 
	C45.715786,104.064087 45.430958,105.126770 45.073566,106.511642 
	C43.534462,106.358025 42.067921,105.882217 40.357544,105.182007 
z"/>
<path fill="#1BAB5F" opacity="1.000000" stroke="none" 
	d="
M33.216377,103.296707 
	C33.092007,102.977768 33.536030,102.870064 34.034966,102.842857 
	C34.718395,102.811256 34.902897,102.806854 35.267021,102.965530 
	C35.680191,103.354057 35.888115,103.601067 36.064701,103.877609 
	C36.058983,103.885582 36.060791,103.895889 36.060791,103.895889 
	C35.154110,103.802467 34.247433,103.709053 33.216377,103.296707 
z"/>
<path fill="#1BAB5F" opacity="1.000000" stroke="none" 
	d="
M37.773647,103.897987 
	C37.773647,103.897987 37.858433,104.089264 37.898266,104.185814 
	C37.367428,104.353767 36.796761,104.425163 36.143440,104.196228 
	C36.060791,103.895889 36.058983,103.885582 36.349239,103.890030 
	C37.017548,103.895638 37.395596,103.896812 37.773647,103.897987 
z"/>
<path fill="#10A959" opacity="1.000000" stroke="none" 
	d="
M37.919655,103.589363 
	C37.395596,103.896812 37.017548,103.895638 36.354958,103.882057 
	C35.888115,103.601067 35.680191,103.354057 35.446678,102.706413 
	C38.964676,99.189865 42.482639,96.095512 46.000603,93.001160 
	C46.000603,93.001160 46.499245,92.999649 47.029854,92.897110 
	C48.040482,92.196739 48.520500,91.598900 49.000519,91.001060 
	C49.000519,91.001060 49.499184,90.999565 50.029808,90.897057 
	C51.040443,90.196693 51.520458,89.598839 52.000473,89.000984 
	C52.000473,89.000984 52.499153,88.999512 53.029793,88.897034 
	C54.040451,88.196709 54.520473,87.598862 55.000496,87.001015 
	C55.000492,87.001015 55.499130,86.999512 56.029755,86.897018 
	C57.040413,86.196655 57.520443,85.598778 58.000473,85.000900 
	C58.000469,85.000893 58.499073,84.999397 59.029697,84.896927 
	C60.040337,84.196533 60.520348,83.598625 61.000359,83.000717 
	C61.000362,83.000717 61.498886,82.999176 62.029518,82.896774 
	C63.040199,82.196434 63.520252,81.598495 64.000305,81.000565 
	C64.000305,81.000565 64.498749,80.998947 65.086105,80.914948 
	C67.378372,79.821075 69.133148,78.886139 70.780586,77.789909 
	C89.958893,65.028259 109.108551,52.223473 128.305664,39.490219 
	C130.351807,38.133026 132.650314,37.156311 134.831757,36.003090 
	C134.862930,36.448063 134.894089,36.893032 134.878784,37.670185 
	C133.234665,38.877068 131.558640,39.634670 130.050964,40.643787 
	C100.705376,60.285305 71.372757,79.946274 42.068928,99.650024 
	C40.589584,100.644730 39.393589,102.060844 37.919655,103.589363 
z"/>
<path fill="#0DA857" opacity="1.000000" stroke="none" 
	d="
M134.879456,35.669552 
	C132.650314,37.156311 130.351807,38.133026 128.305664,39.490219 
	C109.108551,52.223473 89.958893,65.028259 70.780586,77.789909 
	C69.133148,78.886139 67.378372,79.821075 65.335327,80.914429 
	C66.018829,79.767609 66.821251,78.210823 68.094803,77.355721 
	C88.873405,63.404148 109.706123,49.533085 130.552063,35.682121 
	C131.627853,34.967331 132.931686,34.595764 134.480072,34.029839 
	C134.862915,34.442188 134.895035,34.889103 134.879456,35.669552 
z"/>
<path fill="#0DA857" opacity="1.000000" stroke="none" 
	d="
M45.662697,93.084976 
	C42.482639,96.095512 38.964676,99.189865 35.267052,102.543327 
	C34.902897,102.806854 34.718395,102.811256 34.257927,102.793091 
	C35.632092,97.052750 41.287113,96.066078 45.662697,93.084976 
z"/>
<path fill="#0DA857" opacity="1.000000" stroke="none" 
	d="
M57.719353,85.103043 
	C57.520443,85.598778 57.040413,86.196655 56.279076,86.896484 
	C56.477921,86.400688 56.958076,85.802940 57.719353,85.103043 
z"/>
<path fill="#0DA857" opacity="1.000000" stroke="none" 
	d="
M54.719376,87.103142 
	C54.520473,87.598862 54.040451,88.196709 53.279137,88.896515 
	C53.477982,88.400742 53.958118,87.803009 54.719376,87.103142 
z"/>
<path fill="#0DA857" opacity="1.000000" stroke="none" 
	d="
M51.719353,89.103104 
	C51.520458,89.598839 51.040443,90.196693 50.279137,90.896515 
	C50.477974,90.400734 50.958103,89.802986 51.719353,89.103104 
z"/>
<path fill="#0DA857" opacity="1.000000" stroke="none" 
	d="
M48.719398,91.103180 
	C48.520500,91.598900 48.040482,92.196739 47.279175,92.896545 
	C47.478016,92.400780 47.958149,91.803040 48.719398,91.103180 
z"/>
<path fill="#0DA857" opacity="1.000000" stroke="none" 
	d="
M63.719200,81.102768 
	C63.520252,81.598495 63.040199,82.196434 62.278778,82.896255 
	C62.477638,82.400421 62.957863,81.802696 63.719200,81.102768 
z"/>
<path fill="#0DA857" opacity="1.000000" stroke="none" 
	d="
M60.719254,83.102898 
	C60.520348,83.598625 60.040337,84.196533 59.278999,84.896408 
	C59.477837,84.400597 59.957996,83.802841 60.719254,83.102898 
z"/>
<path fill="#FFDE19" opacity="1.000000" stroke="none" 
	d="
M135.745575,120.104568 
	C127.557518,118.782303 122.604355,114.671761 121.125648,107.971786 
	C119.605133,101.082443 122.375290,95.107628 129.757690,90.946831 
	C133.907959,91.760910 137.396072,92.410103 141.084717,93.337097 
	C145.710693,97.468803 147.235657,102.306885 145.341583,107.807236 
	C144.346863,110.695847 142.431702,113.267479 140.661331,116.163765 
	C138.842194,117.598373 137.293884,118.851471 135.745575,120.104568 
z"/>
<path fill="#099147" opacity="1.000000" stroke="none" 
	d="
M66.361519,113.275925 
	C67.053246,110.335205 67.994812,107.604477 69.030251,104.533875 
	C70.983459,101.017998 72.842804,97.842003 74.868423,94.372208 
	C77.910507,90.573936 80.786308,87.069489 83.843658,83.284378 
	C91.194275,78.174095 98.363335,73.344482 106.136658,68.187469 
	C111.168800,66.547676 115.596687,65.235283 120.436874,63.909126 
	C125.749580,63.336155 130.649994,62.776943 135.649811,62.236572 
	C135.749222,62.255417 135.948334,62.291401 135.893158,62.684250 
	C135.808533,64.664307 135.779068,66.251518 135.749588,67.838730 
	C104.306068,69.556412 82.713135,84.893295 71.165428,114.692017 
	C69.510284,114.482773 68.060814,113.984352 66.361519,113.275925 
z"/>
<path fill="#0F56BD" opacity="1.000000" stroke="none" 
	d="
M136.201569,67.921555 
	C135.779068,66.251518 135.808533,64.664307 136.303619,62.697586 
	C145.843124,64.196999 154.917023,66.075928 163.990921,67.954857 
	C183.988495,76.994759 197.867813,91.741524 205.606674,112.671265 
	C205.783554,112.961662 205.719757,113.230560 205.305237,113.434166 
	C203.401917,114.108322 201.913101,114.578865 200.424286,115.049416 
	C191.563370,91.055817 175.086731,75.448509 149.953171,69.597710 
	C145.630569,68.591469 141.092239,68.511963 136.201569,67.921555 
z"/>
<path fill="#F05F2F" opacity="1.000000" stroke="none" 
	d="
M200.491211,115.469284 
	C201.913101,114.578865 203.401917,114.108322 205.264313,113.566147 
	C212.367157,135.725891 209.030914,156.590530 197.005310,176.624817 
	C191.087006,182.820419 185.274719,188.680908 179.224686,194.773727 
	C178.986954,195.006058 178.522827,194.923508 178.291794,194.878983 
	C177.400681,193.664474 176.740601,192.494492 175.895264,191.037811 
	C189.803940,179.484253 199.337570,165.393173 202.416183,147.363907 
	C204.229691,136.743500 203.563782,126.239891 200.491211,115.469284 
z"/>
<path fill="#FFD92F" opacity="1.000000" stroke="none" 
	d="
M123.936432,191.058044 
	C123.331032,190.250351 122.725639,189.442642 122.211914,187.942169 
	C122.516869,186.282791 122.912613,185.316818 122.916000,184.349472 
	C122.965950,170.096191 122.993813,155.842575 122.920822,141.589584 
	C122.914513,140.356339 122.160072,139.126953 121.753143,137.895782 
	C122.558784,136.521591 123.364433,135.147400 124.558182,134.001007 
	C125.090950,137.990189 124.971680,141.786316 125.460358,145.502472 
	C125.882645,148.713730 126.995865,151.834122 127.803650,154.994690 
	C127.848328,155.443451 127.892998,155.892212 127.567284,156.847748 
	C126.799217,160.903595 126.401535,164.452667 126.003853,168.001755 
	C126.333572,174.688675 126.663284,181.375610 126.698654,188.625458 
	C125.581688,189.811600 124.759056,190.434830 123.936432,191.058044 
z"/>
<path fill="#FFDF7C" opacity="1.000000" stroke="none" 
	d="
M150.945816,163.979813 
	C152.902115,152.184525 152.856476,140.608337 147.128845,129.284790 
	C152.171158,131.460541 154.495300,136.074753 156.003616,141.851715 
	C155.534027,148.322418 155.076355,154.088730 155.071411,159.855453 
	C155.068497,163.256531 155.783035,166.658234 156.174896,170.059647 
	C155.297012,173.862915 154.419128,177.666183 153.099594,181.412918 
	C152.438126,179.424103 152.190430,177.494492 152.004410,175.558960 
	C151.633621,171.700958 151.296722,167.839722 150.945816,163.979813 
z"/>
<path fill="#FFDD39" opacity="1.000000" stroke="none" 
	d="
M121.494446,138.116577 
	C122.160072,139.126953 122.914513,140.356339 122.920822,141.589584 
	C122.993813,155.842575 122.965950,170.096191 122.916000,184.349472 
	C122.912613,185.316818 122.516869,186.282791 122.146301,187.638351 
	C120.964813,186.771561 119.940613,185.515808 118.644775,184.133377 
	C117.900986,182.266556 117.428833,180.526428 117.380661,178.273224 
	C118.529892,176.228958 119.835701,174.714966 119.881683,173.163635 
	C120.102173,165.725723 120.095085,158.274643 119.893661,150.835693 
	C119.849655,149.210571 118.679604,147.615921 118.028145,146.007248 
	C119.097343,143.450623 120.166550,140.893997 121.494446,138.116577 
z"/>
<path fill="#FDBF15" opacity="1.000000" stroke="none" 
	d="
M140.932175,115.982254 
	C142.431702,113.267479 144.346863,110.695847 145.341583,107.807236 
	C147.235657,102.306885 145.710693,97.468803 141.335083,93.114655 
	C142.036331,92.022240 142.687729,91.430069 143.339142,90.837898 
	C152.243927,95.711113 154.639923,105.730476 148.726761,113.824287 
	C146.983795,116.210037 144.905243,118.350609 142.580505,120.392197 
	C141.764404,118.781326 141.348297,117.381790 140.932175,115.982254 
z"/>
<path fill="#FFE24B" opacity="1.000000" stroke="none" 
	d="
M117.802521,146.308075 
	C118.679604,147.615921 119.849655,149.210571 119.893661,150.835693 
	C120.095085,158.274643 120.102173,165.725723 119.881683,173.163635 
	C119.835701,174.714966 118.529892,176.228958 117.450760,177.883865 
	C113.414703,167.482620 114.603394,157.032120 117.802521,146.308075 
z"/>
<path fill="#FECD17" opacity="1.000000" stroke="none" 
	d="
M140.661331,116.163765 
	C141.348297,117.381790 141.764404,118.781326 142.292175,120.606354 
	C138.967316,126.466492 135.530792,131.901123 131.544067,137.570099 
	C130.351959,134.596848 129.710083,131.389267 129.068192,128.181686 
	C131.232178,125.693626 133.396149,123.205574 135.652863,120.411041 
	C137.293884,118.851471 138.842194,117.598373 140.661331,116.163765 
z"/>
<path fill="#FFD62C" opacity="1.000000" stroke="none" 
	d="
M128.782303,128.315491 
	C129.710083,131.389267 130.351959,134.596848 131.350525,137.881531 
	C130.460846,143.361496 129.214462,148.764343 127.885864,154.580933 
	C126.995865,151.834122 125.882645,148.713730 125.460358,145.502472 
	C124.971680,141.786316 125.090950,137.990189 124.826431,133.783630 
	C125.969856,131.708740 127.233131,130.079010 128.782303,128.315491 
z"/>
<path fill="#FEDB69" opacity="1.000000" stroke="none" 
	d="
M150.749115,164.285675 
	C151.296722,167.839722 151.633621,171.700958 152.004410,175.558960 
	C152.190430,177.494492 152.438126,179.424103 152.885834,181.709106 
	C152.299088,184.883148 151.484436,187.704468 150.443726,190.799683 
	C149.810898,187.558151 149.394684,184.043793 149.001022,180.526917 
	C148.784042,178.588348 148.604919,176.645554 148.198715,174.348877 
	C148.843292,170.859253 149.697861,167.725403 150.749115,164.285675 
z"/>
<path fill="#FEE496" opacity="1.000000" stroke="none" 
	d="
M156.358337,169.719879 
	C155.783035,166.658234 155.068497,163.256531 155.071411,159.855453 
	C155.076355,154.088730 155.534027,148.322418 156.075562,142.216583 
	C159.426071,151.023834 158.362625,160.199326 156.358337,169.719879 
z"/>
<path fill="#FECD17" opacity="1.000000" stroke="none" 
	d="
M143.052856,90.565430 
	C142.687729,91.430069 142.036331,92.022240 141.134552,92.836853 
	C137.396072,92.410103 133.907959,91.760910 130.098022,90.853943 
	C134.106339,90.495094 138.436462,90.394028 143.052856,90.565430 
z"/>
<path fill="#FFD62C" opacity="1.000000" stroke="none" 
	d="
M126.380737,168.001221 
	C126.401535,164.452667 126.799217,160.903595 127.497902,157.180573 
	C128.221558,160.389099 128.644211,163.771576 129.043060,167.576477 
	C128.265396,167.999481 127.511513,168.000092 126.380737,168.001221 
z"/>
<path fill="#FFD62C" opacity="1.000000" stroke="none" 
	d="
M124.009857,191.362427 
	C124.759056,190.434830 125.581688,189.811600 126.697678,189.093384 
	C126.565422,190.546692 126.139809,192.095001 125.409348,193.797501 
	C124.764099,193.190063 124.423691,192.428436 124.009857,191.362427 
z"/>
<path fill="#1471DD" opacity="1.000000" stroke="none" 
	d="
M163.962952,67.600479 
	C154.917023,66.075928 145.843124,64.196999 136.358780,62.304733 
	C135.948334,62.291401 135.749222,62.255417 135.735367,61.770058 
	C135.671432,58.184872 135.621353,55.085037 135.639465,51.587894 
	C135.654678,50.121696 135.601685,49.052814 135.548691,47.983929 
	C135.551315,47.428562 135.553925,46.873199 135.287491,45.811695 
	C134.955933,44.869713 134.893402,44.433868 134.893829,43.666054 
	C135.026093,42.889214 135.095398,42.444347 135.164688,41.999481 
	C138.396057,44.062386 141.870239,45.830624 144.807144,48.250847 
	C150.545532,52.979683 156.043091,58.008762 161.497559,63.067513 
	C162.628799,64.116684 163.138718,65.835770 163.962952,67.600479 
z"/>
<path fill="#1BAB5F" opacity="1.000000" stroke="none" 
	d="
M135.081726,41.750031 
	C135.095398,42.444347 135.026093,42.889214 134.580322,43.704536 
	C133.468994,44.716270 132.734131,45.357555 131.999252,45.998840 
	C131.999252,45.998840 131.499847,46.000164 130.969116,46.103004 
	C129.958633,46.803516 129.478851,47.401184 128.999069,47.998856 
	C128.999069,47.998852 128.499725,48.000069 127.969048,48.102913 
	C126.958595,48.803448 126.478813,49.401134 125.999031,49.998817 
	C125.999031,49.998817 125.499710,50.000019 124.969040,50.102875 
	C123.958557,50.803429 123.478745,51.401119 122.998940,51.998810 
	C122.998940,51.998814 122.499695,52.000011 121.969048,52.102867 
	C120.958580,52.803421 120.478760,53.401119 119.998947,53.998817 
	C119.998947,53.998817 119.499695,54.000053 118.969055,54.102921 
	C117.958672,54.803532 117.478943,55.401279 116.999207,55.999023 
	C116.999207,55.999023 116.499863,56.000225 115.969147,56.103024 
	C114.958702,56.803566 114.478966,57.401310 113.999222,57.999054 
	C113.999222,57.999054 113.499855,58.000217 112.969139,58.103020 
	C111.958702,58.803577 111.478989,59.401329 110.999268,59.999084 
	C110.999268,59.999084 110.499931,60.000401 109.969223,60.103188 
	C108.958755,60.803673 108.479012,61.401375 107.999268,61.999077 
	C107.999268,61.999077 107.499924,62.000381 106.969208,62.103168 
	C105.958748,62.803642 105.478996,63.401333 104.999245,63.999023 
	C102.886932,65.278023 100.774628,66.557022 98.001472,67.999481 
	C95.893524,69.441666 94.446426,70.720413 92.999321,71.999153 
	C87.911308,75.471458 82.841858,78.971428 77.726868,82.403534 
	C75.423164,83.949295 73.028580,85.359642 70.056702,87.018402 
	C68.958275,87.803055 68.478386,88.400734 67.998497,88.998413 
	C67.998497,88.998413 67.499336,88.999535 66.968758,89.102455 
	C65.958282,89.803055 65.478386,90.400742 64.998497,90.998428 
	C64.998497,90.998428 64.499313,90.999481 63.968731,91.102402 
	C62.958248,91.803017 62.478344,92.400711 61.998440,92.998405 
	C61.998440,92.998405 61.499294,92.999451 60.968727,93.102386 
	C59.958275,93.803009 59.478386,94.400711 58.998497,94.998413 
	C58.998501,94.998413 58.499382,94.999649 57.968826,95.102600 
	C56.958389,95.803200 56.478508,96.400856 55.998627,96.998512 
	C55.998631,96.998512 55.499451,96.999733 54.968857,97.102638 
	C53.958374,97.803200 53.478485,98.400856 52.998596,98.998512 
	C52.998600,98.998512 52.499420,98.999664 51.968834,99.102585 
	C50.958363,99.803177 50.478477,100.400864 49.998596,100.998543 
	C49.998596,100.998543 49.499443,100.999718 48.968864,101.102631 
	C47.958466,101.803261 47.478649,102.400986 46.998833,102.998703 
	C46.998833,102.998703 46.499714,102.999832 46.250164,103.000626 
	C44.557041,103.570847 43.113472,104.140274 41.340424,104.729378 
	C45.246006,101.411263 49.283512,97.778961 53.748531,94.784012 
	C80.505440,76.836609 107.360703,59.035828 134.507370,41.093979 
	C134.887421,41.168236 134.943085,41.334412 135.081726,41.750031 
z"/>
<path fill="#29AF67" opacity="1.000000" stroke="none" 
	d="
M135.212692,48.024944 
	C135.601685,49.052814 135.654678,50.121696 135.329163,51.683746 
	C131.492233,54.327755 127.893158,56.288620 124.630531,58.703957 
	C122.806831,60.054050 121.541512,62.158405 120.024582,63.922886 
	C115.596687,65.235283 111.168800,66.547676 106.373337,67.942841 
	C107.075951,66.791832 107.934807,65.233330 109.250633,64.377045 
	C117.737007,58.854496 126.323235,53.485405 135.212692,48.024944 
z"/>
<path fill="#20AC61" opacity="1.000000" stroke="none" 
	d="
M93.339836,71.926369 
	C94.446426,70.720413 95.893524,69.441666 97.670654,68.082428 
	C96.560570,69.285812 95.120461,70.569702 93.339836,71.926369 
z"/>
<path fill="#20AC61" opacity="1.000000" stroke="none" 
	d="
M132.388184,45.997124 
	C132.734131,45.357555 133.468994,44.716270 134.517365,44.036507 
	C134.893402,44.433868 134.955933,44.869713 135.064575,45.632812 
	C134.332825,45.971848 133.554962,45.983627 132.388184,45.997124 
z"/>
<path fill="#20AC61" opacity="1.000000" stroke="none" 
	d="
M114.280251,57.896854 
	C114.478966,57.401310 114.958702,56.803566 115.719482,56.103703 
	C115.520775,56.599274 115.041023,57.196964 114.280251,57.896854 
z"/>
<path fill="#20AC61" opacity="1.000000" stroke="none" 
	d="
M50.279720,100.896454 
	C50.478477,100.400864 50.958363,99.803177 51.719246,99.103287 
	C51.520443,99.598831 51.040642,100.196594 50.279720,100.896454 
z"/>
<path fill="#20AC61" opacity="1.000000" stroke="none" 
	d="
M105.280258,63.896835 
	C105.478996,63.401333 105.958748,62.803642 106.719543,62.103882 
	C106.520821,62.599422 106.041046,63.197037 105.280258,63.896835 
z"/>
<path fill="#20AC61" opacity="1.000000" stroke="none" 
	d="
M68.279633,88.896347 
	C68.478386,88.400734 68.958275,87.803055 69.719162,87.103149 
	C69.520363,87.598701 69.040565,88.196487 68.279633,88.896347 
z"/>
<path fill="#20AC61" opacity="1.000000" stroke="none" 
	d="
M47.279915,102.896561 
	C47.478649,102.400986 47.958466,101.803261 48.719284,101.103333 
	C48.520519,101.598885 48.040756,102.196648 47.279915,102.896561 
z"/>
<path fill="#20AC61" opacity="1.000000" stroke="none" 
	d="
M108.280281,61.896873 
	C108.479012,61.401375 108.958755,60.803673 109.719551,60.103897 
	C109.520828,60.599442 109.041061,61.197060 108.280281,61.896873 
z"/>
<path fill="#20AC61" opacity="1.000000" stroke="none" 
	d="
M111.280289,59.896873 
	C111.478989,59.401329 111.958702,58.803577 112.719452,58.103687 
	C112.520767,58.599255 112.041039,59.196957 111.280289,59.896873 
z"/>
<path fill="#20AC61" opacity="1.000000" stroke="none" 
	d="
M65.279648,90.896362 
	C65.478386,90.400742 65.958282,89.803055 66.719177,89.103149 
	C66.520386,89.598709 66.040588,90.196503 65.279648,90.896362 
z"/>
<path fill="#20AC61" opacity="1.000000" stroke="none" 
	d="
M53.279716,98.896439 
	C53.478485,98.400856 53.958374,97.803200 54.719269,97.103363 
	C54.520462,97.598900 54.040649,98.196625 53.279716,98.896439 
z"/>
<path fill="#20AC61" opacity="1.000000" stroke="none" 
	d="
M117.280243,55.896828 
	C117.478943,55.401279 117.958672,54.803532 118.719437,54.103642 
	C118.520729,54.599209 118.041000,55.196915 117.280243,55.896828 
z"/>
<path fill="#20AC61" opacity="1.000000" stroke="none" 
	d="
M62.279594,92.896347 
	C62.478344,92.400711 62.958248,91.803017 63.719143,91.103058 
	C63.520344,91.598625 63.040546,92.196457 62.279594,92.896347 
z"/>
<path fill="#20AC61" opacity="1.000000" stroke="none" 
	d="
M120.280014,53.896667 
	C120.478760,53.401119 120.958580,52.803421 121.719421,52.103577 
	C121.520653,52.599129 121.040863,53.196823 120.280014,53.896667 
z"/>
<path fill="#20AC61" opacity="1.000000" stroke="none" 
	d="
M59.279648,94.896347 
	C59.478386,94.400711 59.958275,93.803009 60.719154,93.103050 
	C60.520363,93.598618 60.040581,94.196442 59.279648,94.896347 
z"/>
<path fill="#20AC61" opacity="1.000000" stroke="none" 
	d="
M129.280106,47.896706 
	C129.478851,47.401184 129.958633,46.803516 130.719421,46.103745 
	C130.520676,46.599281 130.040909,47.196918 129.280106,47.896706 
z"/>
<path fill="#20AC61" opacity="1.000000" stroke="none" 
	d="
M126.280075,49.896667 
	C126.478813,49.401134 126.958595,48.803448 127.719383,48.103630 
	C127.520645,48.599174 127.040886,49.196850 126.280075,49.896667 
z"/>
<path fill="#20AC61" opacity="1.000000" stroke="none" 
	d="
M123.280014,51.896667 
	C123.478745,51.401119 123.958557,50.803429 124.719391,50.103592 
	C124.520630,50.599140 124.040855,51.196831 123.280014,51.896667 
z"/>
<path fill="#20AC61" opacity="1.000000" stroke="none" 
	d="
M56.279747,96.896423 
	C56.478508,96.400856 56.958389,95.803200 57.719269,95.103348 
	C57.520466,95.598877 57.040665,96.196609 56.279747,96.896423 
z"/>
<path fill="#31AF71" opacity="1.000000" stroke="none" 
	d="
M120.436874,63.909126 
	C121.541512,62.158405 122.806831,60.054050 124.630531,58.703957 
	C127.893158,56.288620 131.492233,54.327755 135.260956,52.081055 
	C135.621353,55.085037 135.671432,58.184872 135.635956,61.751217 
	C130.649994,62.776943 125.749580,63.336155 120.436874,63.909126 
z"/>
</svg>