<?xml version="1.0" standalone="no"?>
<!DOCTYPE svg PUBLIC "-//W3C//DTD SVG 20010904//EN"
 "http://www.w3.org/TR/2001/REC-SVG-20010904/DTD/svg10.dtd">
<svg version="1.0" xmlns="http://www.w3.org/2000/svg"
 width="270.000000pt" height="270.000000pt" viewBox="0 0 270.000000 270.000000"
 preserveAspectRatio="xMidYMid meet">

<g transform="translate(0.000000,270.000000) scale(0.100000,-0.100000)"
fill="#000000" stroke="none">
<path d="M1250 2560 c-541 -45 -977 -433 -1096 -975 -24 -112 -24 -350 0 -465
22 -101 67 -232 109 -315 69 -138 203 -303 322 -398 47 -37 50 -38 63 -21 7
11 65 91 128 179 63 88 127 176 143 196 l30 36 -83 84 c-132 134 -196 288
-196 474 0 186 65 341 200 475 137 138 285 200 475 200 520 0 848 -555 597
-1010 -19 -36 -71 -101 -114 -146 -66 -68 -76 -83 -64 -93 21 -18 43 -3 120
80 46 50 80 100 111 163 88 180 103 327 54 536 -4 16 39 32 271 105 154 48
140 51 161 -30 64 -249 32 -552 -85 -791 -69 -140 -148 -246 -265 -356 -86
-80 -103 -108 -65 -108 25 0 229 211 284 294 199 298 256 645 164 1004 -93
369 -404 699 -772 822 -170 56 -320 75 -492 60z m96 -466 c-2 -6 -39 -14 -83
-17 -246 -18 -488 -198 -588 -437 -10 -25 -22 -49 -26 -54 -4 -5 -82 17 -176
49 l-169 57 518 347 518 346 2 65 c1 36 4 -27 5 -140 2 -112 1 -210 -1 -216z"/>
</g>
</svg>
